<svg id="OBJECTS" xmlns="http://www.w3.org/2000/svg" viewBox="0 0 1248.68 578.7"><defs><style>.cls-1{fill:#ff332e;}.cls-2{fill:#e8524a;}.cls-3{fill:#ededed;}.cls-4,.cls-5{fill:none;stroke:#ededed;stroke-miterlimit:10;}.cls-4{stroke-width:0.25px;}.cls-5{stroke-width:0.48px;}</style></defs><title>portasvg1</title><circle class="cls-1" cx="1246.76" cy="78.85" r="1.92"/><path class="cls-2" d="M650.05,274a1.92,1.92,0,1,1-1.92-1.92A1.92,1.92,0,0,1,650.05,274Z" transform="translate(-137.47 -68.49)"/><path class="cls-1" d="M1233.54,571.75a1.92,1.92,0,1,1-1.91-1.91A1.92,1.92,0,0,1,1233.54,571.75Z" transform="translate(-137.47 -68.49)"/><path class="cls-1" d="M141.31,102.33a1.92,1.92,0,1,1-1.92-1.92A1.92,1.92,0,0,1,141.31,102.33Z" transform="translate(-137.47 -68.49)"/><path class="cls-1" d="M376,82.7a1.92,1.92,0,1,1-1.91-1.92A1.9,1.9,0,0,1,376,82.7Z" transform="translate(-137.47 -68.49)"/><circle class="cls-1" cx="42.33" cy="419.63" r="1.92"/><circle class="cls-1" cx="1169.43" cy="266.61" r="1.92"/><circle class="cls-1" cx="359.09" cy="426.12" r="1.92"/><circle class="cls-1" cx="204.15" cy="294.86" r="1.92"/><path class="cls-3" d="M1203.21,315.12a1.92,1.92,0,1,1-1.92-1.92A1.92,1.92,0,0,1,1203.21,315.12Z" transform="translate(-137.47 -68.49)"/><circle class="cls-3" cx="427" cy="534.07" r="1.92"/><circle class="cls-3" cx="1030.69" cy="337.09" r="1.92"/><circle class="cls-3" cx="1228.78" cy="576.78" r="1.92"/><path class="cls-3" d="M914.68,152.59a1.92,1.92,0,1,1-1.91-1.91A1.91,1.91,0,0,1,914.68,152.59Z" transform="translate(-137.47 -68.49)"/><circle class="cls-4" cx="186.26" cy="456.93" r="79.05"/><circle class="cls-5" cx="1026.31" cy="152.97" r="152.73"/></svg>